<mxfile host="app.diagrams.net" modified="2023-07-10T11:57:58.848Z" agent="Mozilla/5.0 (Windows NT 10.0; Win64; x64) AppleWebKit/537.36 (KHTML, like Gecko) Chrome/114.0.0.0 Safari/537.36" version="21.3.7" etag="pogTtj8ICrHszlS44_Tg" type="github">
  <diagram name="第 1 页" id="VYIIA8n19RVKpo66zgYg">
    <mxGraphModel>
      <root>
        <mxCell id="0" />
        <mxCell id="1" parent="0" />
      </root>
    </mxGraphModel>
  </diagram>
</mxfile>
